<?xml version="1.0" encoding="UTF-8"?>
<svg xmlns="http://www.w3.org/2000/svg" xmlns:xlink="http://www.w3.org/1999/xlink" width="50pt" height="50pt" viewBox="0 0 50 50" version="1.1">
<g id="surface1">
<path style=" stroke:none;fill-rule:nonzero;fill:#000848;fill-opacity:1;" d="M 9.921875 1.984375 C 9.375 1.984375 8.929688 2.425781 8.929688 2.976563 L 8.929688 29.761719 C 8.929688 30.3125 9.375 30.753906 9.921875 30.753906 L 13.890625 30.753906 C 14.433594 30.753906 14.882813 30.3125 14.882813 29.761719 L 14.882813 2.976563 C 14.882813 2.425781 14.433594 1.984375 13.890625 1.984375 Z M 18.847656 8.929688 C 18.304688 8.929688 17.855469 9.371094 17.855469 9.921875 L 17.855469 46.628906 C 17.855469 47.175781 18.304688 47.617188 18.847656 47.617188 L 22.816406 47.617188 C 23.363281 47.617188 23.808594 47.175781 23.808594 46.628906 L 23.808594 9.921875 C 23.808594 9.371094 23.363281 8.929688 22.816406 8.929688 Z M 27.777344 8.929688 C 27.230469 8.929688 26.785156 9.371094 26.785156 9.921875 L 26.785156 46.628906 C 26.785156 47.175781 27.230469 47.617188 27.777344 47.617188 L 31.746094 47.617188 C 32.292969 47.617188 32.738281 47.175781 32.738281 46.628906 L 32.738281 9.921875 C 32.738281 9.371094 32.292969 8.929688 31.746094 8.929688 Z M 36.707031 8.929688 C 36.160156 8.929688 35.714844 9.371094 35.714844 9.921875 L 35.714844 29.761719 C 35.714844 30.3125 36.160156 30.753906 36.707031 30.753906 L 40.675781 30.753906 C 41.222656 30.753906 41.667969 30.3125 41.667969 29.761719 L 41.667969 9.921875 C 41.667969 9.371094 41.222656 8.929688 40.675781 8.929688 Z "/>
</g>
</svg>
