<?xml version="1.0" encoding="UTF-8"?>
<svg xmlns="http://www.w3.org/2000/svg" xmlns:xlink="http://www.w3.org/1999/xlink" width="48pt" height="48pt" viewBox="0 0 48 48" version="1.1">
<g id="surface1">
<path style=" stroke:none;fill-rule:nonzero;fill:#B0BEC5;fill-opacity:1;" d="M 43.175781 8 L 24 8 L 24 40 L 43.175781 40 C 44.183594 40 45 39.183594 45 38.175781 L 45 9.824219 C 45 8.816406 44.183594 8 43.175781 8 Z "/>
<path style=" stroke:none;fill-rule:nonzero;fill:#CFD8DC;fill-opacity:1;" d="M 3 9.824219 L 3 38.175781 C 3 39.183594 3.816406 40 4.824219 40 L 24 40 L 24 8 L 4.824219 8 C 3.816406 8 3 8.816406 3 9.824219 Z "/>
<path style=" stroke:none;fill-rule:nonzero;fill:#78909C;fill-opacity:1;" d="M 28 15 L 41 15 L 41 17 L 28 17 Z "/>
<path style=" stroke:none;fill-rule:nonzero;fill:#78909C;fill-opacity:1;" d="M 28 19 L 39 19 L 39 21 L 28 21 Z "/>
<path style=" stroke:none;fill-rule:nonzero;fill:#78909C;fill-opacity:1;" d="M 28 27 L 39 27 L 39 29 L 28 29 Z "/>
<path style=" stroke:none;fill-rule:nonzero;fill:#78909C;fill-opacity:1;" d="M 28 23 L 41 23 L 41 25 L 28 25 Z "/>
<path style=" stroke:none;fill-rule:nonzero;fill:#78909C;fill-opacity:1;" d="M 28 31 L 41 31 L 41 33 L 28 33 Z "/>
</g>
</svg>
