<?xml version="1.0" encoding="UTF-8"?>
<svg xmlns="http://www.w3.org/2000/svg" xmlns:xlink="http://www.w3.org/1999/xlink" width="48pt" height="48pt" viewBox="0 0 48 48" version="1.1">
<g id="surface1">
<path style=" stroke:none;fill-rule:nonzero;fill:#1565C0;fill-opacity:1;" d="M 20 36 L 36 36 L 42 42 L 42 20 C 42 17.789063 40.210938 16 38 16 L 20 16 C 17.789063 16 16 17.789063 16 20 L 16 32 C 16 34.210938 17.789063 36 20 36 "/>
<path style=" stroke:none;fill-rule:nonzero;fill:#2196F3;fill-opacity:1;" d="M 29 26 L 12 26 L 6 32 L 6 10 C 6 7.789063 7.789063 6 10 6 L 29 6 C 31.210938 6 33 7.789063 33 10 L 33 22 C 33 24.210938 31.210938 26 29 26 "/>
</g>
</svg>
