<?xml version="1.0" encoding="UTF-8"?>
<svg xmlns="http://www.w3.org/2000/svg" xmlns:xlink="http://www.w3.org/1999/xlink" width="48pt" height="48pt" viewBox="0 0 48 48" version="1.1">
<g id="surface1">
<path style=" stroke:none;fill-rule:nonzero;fill:#3F51B5;fill-opacity:1;" d="M 26.398438 24.898438 L 27.308594 19 L 30 19 L 27.878906 29 L 25.5 29 L 24.003906 23.0625 L 22.503906 29 L 20.128906 29 L 18 19 L 20.695313 19 L 21.585938 25.035156 L 23.019531 19 L 24.980469 19 Z "/>
<path style=" stroke:none;fill-rule:nonzero;fill:#3F51B5;fill-opacity:1;" d="M 12.398438 24.898438 L 13.308594 19 L 16 19 L 13.878906 29 L 11.5 29 L 10.003906 23.0625 L 8.503906 29 L 6.128906 29 L 4 19 L 6.695313 19 L 7.585938 25.035156 L 9.019531 19 L 10.980469 19 Z "/>
<path style=" stroke:none;fill-rule:nonzero;fill:#3F51B5;fill-opacity:1;" d="M 40.398438 24.898438 L 41.308594 19 L 44 19 L 41.878906 29 L 39.5 29 L 38.003906 23.0625 L 36.503906 29 L 34.128906 29 L 32 19 L 34.695313 19 L 35.585938 25.035156 L 37.019531 19 L 38.980469 19 Z "/>
<path style=" stroke:none;fill-rule:nonzero;fill:#2196F3;fill-opacity:1;" d="M 8.5 12 L 39.5 12 L 39.5 14 L 8.5 14 Z "/>
<path style=" stroke:none;fill-rule:nonzero;fill:#2196F3;fill-opacity:1;" d="M 8.5 12 L 39.5 12 L 39.5 14 L 8.5 14 Z "/>
<path style=" stroke:none;fill-rule:nonzero;fill:#2196F3;fill-opacity:1;" d="M 8.5 34 L 39.5 34 L 39.5 36 L 8.5 36 Z "/>
<path style=" stroke:none;fill-rule:nonzero;fill:#2196F3;fill-opacity:1;" d="M 7.425781 17 C 9.511719 12.089844 13.714844 8.285156 18.886719 6.75 C 16.921875 9.046875 15.40625 12.648438 14.613281 17 L 16.664063 17 C 17.777344 11.28125 20.183594 6.996094 23 6.164063 L 23 17 L 25 17 L 25 6.164063 C 27.816406 6.996094 30.222656 11.28125 31.335938 17 L 33.386719 17 C 32.59375 12.648438 31.078125 9.046875 29.113281 6.75 C 34.285156 8.285156 38.488281 12.089844 40.574219 17 L 42.710938 17 C 39.863281 9.417969 32.5625 4 24 4 C 15.4375 4 8.136719 9.417969 5.289063 17 Z "/>
<path style=" stroke:none;fill-rule:nonzero;fill:#2196F3;fill-opacity:1;" d="M 40.574219 31 C 38.488281 35.910156 34.285156 39.714844 29.113281 41.25 C 31.078125 38.953125 32.59375 35.351563 33.386719 31 L 31.335938 31 C 30.222656 36.71875 27.816406 41.003906 25 41.835938 L 25 31 L 23 31 L 23 41.835938 C 20.183594 41.003906 17.777344 36.71875 16.664063 31 L 14.613281 31 C 15.40625 35.351563 16.921875 38.953125 18.886719 41.25 C 13.714844 39.714844 9.511719 35.910156 7.425781 31 L 5.289063 31 C 8.136719 38.582031 15.4375 44 24 44 C 32.5625 44 39.863281 38.582031 42.710938 31 Z "/>
</g>
</svg>
