<?xml version="1.0" encoding="UTF-8"?>
<svg xmlns="http://www.w3.org/2000/svg" xmlns:xlink="http://www.w3.org/1999/xlink" width="48pt" height="48pt" viewBox="0 0 48 48" version="1.1">
<g id="surface1">
<path style=" stroke:none;fill-rule:nonzero;fill:#3E2723;fill-opacity:1;" d="M 25.976563 8.5 L 35.976563 8.5 L 35.976563 22 L 25.976563 22 Z "/>
<path style=" stroke:none;fill-rule:nonzero;fill:#EF8D3C;fill-opacity:1;" d="M 27.976563 16.429688 L 27.976563 20.714844 C 27.976563 20.714844 28.488281 25 30.976563 25 C 33.460938 25 33.976563 20.714844 33.976563 20.714844 L 33.976563 16.429688 Z "/>
<path style=" stroke:none;fill-rule:nonzero;fill:#FFAA45;fill-opacity:1;" d="M 36.976563 9.152344 C 36.976563 4.113281 24.976563 5.871094 24.976563 9.152344 L 24.976563 14.355469 C 24.976563 17.636719 27.660156 20.296875 30.976563 20.296875 C 34.289063 20.296875 36.976563 17.636719 36.976563 14.355469 Z "/>
<path style=" stroke:none;fill-rule:nonzero;fill:#784719;fill-opacity:1;" d="M 27.476563 13.25 C 27.476563 12.835938 27.8125 12.5 28.226563 12.5 C 28.640625 12.5 28.976563 12.835938 28.976563 13.25 C 28.976563 13.664063 28.640625 14 28.226563 14 C 27.8125 14 27.476563 13.664063 27.476563 13.25 M 32.976563 13.25 C 32.976563 13.664063 33.3125 14 33.726563 14 C 34.140625 14 34.476563 13.664063 34.476563 13.25 C 34.476563 12.835938 34.140625 12.5 33.726563 12.5 C 33.3125 12.5 32.976563 12.835938 32.976563 13.25 "/>
<path style=" stroke:none;fill-rule:nonzero;fill:#4E342E;fill-opacity:1;" d="M 30.976563 3 C 26.835938 3 20.976563 4.445313 20.976563 18 L 25.976563 22 L 25.976563 12 L 33.976563 8 L 35.976563 11.089844 L 35.976563 22 L 40.976563 18 C 40.976563 15.253906 40.742188 4.363281 33.703125 4.363281 L 32.976563 3 Z "/>
<path style=" stroke:none;fill-rule:nonzero;fill:#3F51B5;fill-opacity:1;" d="M 33.976563 21 L 33.929688 21.011719 C 33.761719 21.972656 33.070313 25 30.976563 25 C 28.882813 25 28.191406 21.972656 28.023438 21.011719 L 27.976563 21 C 27.976563 21 20.015625 22.394531 20 30 L 19.976563 30 L 19.976563 36 L 41.976563 36 L 41.976563 30.019531 L 42 30.019531 C 42 22.421875 33.976563 21 33.976563 21 Z "/>
<path style=" stroke:none;fill-rule:nonzero;fill:#3F51B5;fill-opacity:1;" d="M 33.976563 21 L 33.929688 21.011719 C 33.761719 21.972656 33.070313 25 30.976563 25 C 28.882813 25 28.191406 21.972656 28.023438 21.011719 L 27.976563 21 C 27.976563 21 20.015625 22.394531 20 30 L 19.976563 30 L 19.976563 36 L 41.976563 36 L 41.976563 30.019531 L 42 30.019531 C 42 22.421875 33.976563 21 33.976563 21 Z "/>
<path style=" stroke:none;fill-rule:nonzero;fill:#1A237E;fill-opacity:1;" d="M 30.976563 27 C 34.046875 27 35.4375 23.835938 35.863281 21.574219 C 34.773438 21.140625 33.976563 21 33.976563 21 L 33.929688 21.011719 C 33.761719 21.972656 33.070313 25 30.976563 25 C 28.882813 25 28.191406 21.972656 28.023438 21.011719 L 27.976563 21 C 27.976563 21 27.179688 21.140625 26.089844 21.570313 C 26.511719 23.832031 27.90625 27 30.976563 27 Z "/>
<path style=" stroke:none;fill-rule:nonzero;fill:#FFA726;fill-opacity:1;" d="M 22 19.5 C 22 20.328125 21.328125 21 20.5 21 C 19.671875 21 19 20.328125 19 19.5 C 19 18.671875 19.671875 18 20.5 18 C 21.328125 18 22 18.671875 22 19.5 "/>
<path style=" stroke:none;fill-rule:nonzero;fill:#FFA726;fill-opacity:1;" d="M 11 19.5 C 11 20.328125 10.328125 21 9.5 21 C 8.671875 21 8 20.328125 8 19.5 C 8 18.671875 8.671875 18 9.5 18 C 10.328125 18 11 18.671875 11 19.5 "/>
<path style=" stroke:none;fill-rule:nonzero;fill:#4FC3F7;fill-opacity:1;" d="M 26.023438 36.019531 C 26.023438 28.421875 18 27 18 27 L 15.023438 27.710938 L 12 27 C 12 27 4.039063 28.394531 4.023438 36 L 4 36 L 4 38 L 26 38 L 26 36.019531 Z "/>
<path style=" stroke:none;fill-rule:nonzero;fill:#FF9800;fill-opacity:1;" d="M 15 30 C 12 30 12 27 12 27 L 12 23 L 18 23 L 18 27 C 18 27 18 30 15 30 Z "/>
<path style=" stroke:none;fill-rule:nonzero;fill:#01579B;fill-opacity:1;" d="M 15 32 C 18.316406 32 19.71875 29.558594 19.957031 27.605469 C 18.832031 27.152344 18 27 18 27 C 18 27 18 30 15 30 C 12 30 12 27 12 27 C 12 27 11.164063 27.148438 10.042969 27.601563 C 10.28125 29.558594 11.683594 32 15 32 Z "/>
<path style=" stroke:none;fill-rule:nonzero;fill:#FFB74D;fill-opacity:1;" d="M 21 15.152344 C 21 10.113281 9 11.871094 9 15.152344 L 9 20.355469 C 9 23.636719 11.683594 26.296875 15 26.296875 C 18.3125 26.296875 21 23.636719 21 20.355469 Z "/>
<path style=" stroke:none;fill-rule:nonzero;fill:#FFB74D;fill-opacity:1;" d="M 21 15.152344 C 21 10.113281 9 11.871094 9 15.152344 L 9 20.355469 C 9 23.636719 11.683594 26.296875 15 26.296875 C 18.3125 26.296875 21 23.636719 21 20.355469 Z "/>
<path style=" stroke:none;fill-rule:nonzero;fill:#795548;fill-opacity:1;" d="M 15 9 C 10.746094 9 8 12.773438 8 16.148438 L 8 18 L 10 20 L 10 17 L 18 14 L 20 16 L 20 20 L 22 18 L 22 17.042969 C 22 14.226563 21.273438 11.089844 17.800781 10.398438 L 17 9 Z "/>
<path style=" stroke:none;fill-rule:nonzero;fill:#784719;fill-opacity:1;" d="M 11.5 19.25 C 11.5 19.664063 11.835938 20 12.25 20 C 12.664063 20 13 19.664063 13 19.25 C 13 18.835938 12.664063 18.5 12.25 18.5 C 11.835938 18.5 11.5 18.835938 11.5 19.25 "/>
<path style=" stroke:none;fill-rule:nonzero;fill:#784719;fill-opacity:1;" d="M 17 19.25 C 17 19.664063 17.335938 20 17.75 20 C 18.164063 20 18.5 19.664063 18.5 19.25 C 18.5 18.835938 18.164063 18.5 17.75 18.5 C 17.335938 18.5 17 18.835938 17 19.25 "/>
<path style=" stroke:none;fill-rule:nonzero;fill:#43A047;fill-opacity:1;" d="M 44 35 C 44 40.523438 39.523438 45 34 45 C 28.476563 45 24 40.523438 24 35 C 24 29.476563 28.476563 25 34 25 C 39.523438 25 44 29.476563 44 35 "/>
<path style=" stroke:none;fill-rule:nonzero;fill:#FFFFFF;fill-opacity:1;" d="M 32 29 L 36 29 L 36 41 L 32 41 Z "/>
<path style=" stroke:none;fill-rule:nonzero;fill:#FFFFFF;fill-opacity:1;" d="M 28 33 L 40 33 L 40 37 L 28 37 Z "/>
</g>
</svg>
