<?xml version="1.0" encoding="UTF-8"?>
<svg xmlns="http://www.w3.org/2000/svg" xmlns:xlink="http://www.w3.org/1999/xlink" width="48pt" height="48pt" viewBox="0 0 48 48" version="1.1">
<g id="surface1">
<path style=" stroke:none;fill-rule:nonzero;fill:#64B5F6;fill-opacity:1;" d="M 38 33 C 38 35.761719 35.761719 38 33 38 L 10 38 C 7.238281 38 5 35.761719 5 33 L 5 10 C 5 7.238281 7.238281 5 10 5 L 33 5 C 35.761719 5 38 7.238281 38 10 Z "/>
<path style=" stroke:none;fill-rule:nonzero;fill:#E3F2FD;fill-opacity:1;" d="M 33 16 L 10 16 C 9.449219 16 9 15.550781 9 15 L 9 10 C 9 9.449219 9.449219 9 10 9 L 33 9 C 33.550781 9 34 9.449219 34 10 L 34 15 C 34 15.550781 33.550781 16 33 16 "/>
<path style=" stroke:none;fill-rule:nonzero;fill:#E3F2FD;fill-opacity:1;" d="M 33 25 L 10 25 C 9.449219 25 9 24.550781 9 24 L 9 19 C 9 18.449219 9.449219 18 10 18 L 33 18 C 33.550781 18 34 18.449219 34 19 L 34 24 C 34 24.550781 33.550781 25 33 25 "/>
<path style=" stroke:none;fill-rule:nonzero;fill:#E3F2FD;fill-opacity:1;" d="M 33 34 L 10 34 C 9.449219 34 9 33.550781 9 33 L 9 28 C 9 27.449219 9.449219 27 10 27 L 33 27 C 33.550781 27 34 27.449219 34 28 L 34 33 C 34 33.550781 33.550781 34 33 34 "/>
<path style=" stroke:none;fill-rule:nonzero;fill:#9C27B0;fill-opacity:1;" d="M 43 33 C 43 38.523438 38.523438 43 33 43 C 27.476563 43 23 38.523438 23 33 C 23 27.476563 27.476563 23 33 23 C 38.523438 23 43 27.476563 43 33 "/>
<path style=" stroke:none;fill-rule:nonzero;fill:#F3E5F5;fill-opacity:1;" d="M 29 27 L 31 27 L 31 39 L 29 39 Z "/>
<path style=" stroke:none;fill-rule:nonzero;fill:#F3E5F5;fill-opacity:1;" d="M 35 27 L 37 27 L 37 39 L 35 39 Z "/>
<path style=" stroke:none;fill-rule:nonzero;fill:#F3E5F5;fill-opacity:1;" d="M 27 35 L 39 35 L 39 37 L 27 37 Z "/>
<path style=" stroke:none;fill-rule:nonzero;fill:#F3E5F5;fill-opacity:1;" d="M 27 30 L 39 30 L 39 32 L 27 32 Z "/>
</g>
</svg>
