<?xml version="1.0" encoding="UTF-8"?>
<svg xmlns="http://www.w3.org/2000/svg" xmlns:xlink="http://www.w3.org/1999/xlink" width="48pt" height="48pt" viewBox="0 0 48 48" version="1.1">
<g id="surface1">
<path style=" stroke:none;fill-rule:nonzero;fill:#78909C;fill-opacity:1;" d="M 44 16.5 C 44 10.699219 39.300781 6 33.5 6 C 30.902344 6 28.527344 6.949219 26.695313 8.511719 C 24.925781 7.917969 21.460938 7 17 7 C 17 7 4 6.6875 4 20 C 4 25.921875 5.558594 29.449219 6 32 C 6.511719 34.949219 6.925781 42.082031 6.925781 42.082031 C 6.96875 42.601563 7.398438 43 7.921875 43 L 15 43 L 15 33 C 15 33 16.378906 34 18 34 C 19.621094 34 21 33 21 33 L 21 42 C 21 42.550781 21.449219 43 22 43 L 29 43 C 29 43 29.511719 33.5625 30 31 C 30.488281 28.4375 32 25 32 25 C 40.0625 25 40 31 40 31 L 40 32 C 40 33.101563 39.101563 34 38 34 C 36.898438 34 36 33.101563 36 32 L 32 32 C 32 35.308594 34.691406 38 38 38 C 41.308594 38 44 35.308594 44 32 L 44 17 L 43.96875 17 C 43.984375 16.835938 44 16.671875 44 16.5 Z "/>
<path style=" stroke:none;fill-rule:nonzero;fill:#37474F;fill-opacity:1;" d="M 39 17 C 39 17.550781 38.550781 18 38 18 C 37.449219 18 37 17.550781 37 17 C 37 16.449219 37.449219 16 38 16 C 38.550781 16 39 16.449219 39 17 Z "/>
<path style=" stroke:none;fill-rule:nonzero;fill:#B0BEC5;fill-opacity:1;" d="M 19 15 C 19 20.328125 21.6875 25.609375 27 28 C 27 28 29.148438 17.273438 30 14 C 30 14 31 13.171875 31 11.5 C 31 8.460938 28.539063 6 25.5 6 C 22.460938 6 19 9.078125 19 15 Z "/>
<path style=" stroke:none;fill-rule:nonzero;fill:#EFEBE9;fill-opacity:1;" d="M 43.605469 26.9375 C 43.351563 26.902344 42.996094 26.851563 42.582031 26.730469 C 42.375 26.679688 42.148438 26.621094 41.921875 26.53125 C 41.691406 26.445313 41.445313 26.378906 41.210938 26.257813 C 40.726563 26.042969 40.230469 25.785156 39.769531 25.472656 C 38.84375 24.867188 38.054688 24.09375 37.550781 23.46875 C 37.289063 23.160156 37.101563 22.886719 36.980469 22.699219 C 36.855469 22.507813 36.824219 22.433594 36.808594 22.414063 L 36.796875 22.425781 C 36.613281 22.175781 36.332031 22 36 22 C 35.449219 22 35 22.449219 35 23 C 35 23.21875 35.085938 23.410156 35.203125 23.574219 L 35.191406 23.585938 C 35.183594 23.578125 35.214844 23.613281 35.273438 23.679688 C 35.285156 23.691406 35.296875 23.707031 35.3125 23.71875 C 35.363281 23.777344 35.429688 23.847656 35.511719 23.925781 C 35.714844 24.125 36.007813 24.394531 36.378906 24.683594 C 37.109375 25.269531 38.171875 25.929688 39.316406 26.363281 C 39.882813 26.589844 40.46875 26.75 41.019531 26.859375 C 41.292969 26.929688 41.566406 26.945313 41.820313 26.984375 C 42.070313 27.027344 42.3125 27.03125 42.535156 27.039063 C 42.976563 27.070313 43.34375 27.042969 43.601563 27.023438 C 43.855469 27.007813 44 27 44 27 C 44 27 43.855469 26.976563 43.605469 26.9375 Z "/>
<path style=" stroke:none;fill-rule:nonzero;fill:#546E7A;fill-opacity:1;" d="M 29 43 L 22 43 C 21.507813 43 21.117188 42.636719 21.035156 42.167969 C 21.203125 40.394531 22.683594 39 24.5 39 C 25.039063 39 25.542969 39.132813 26 39.351563 C 26.457031 39.132813 26.960938 39 27.5 39 C 28.125 39 28.707031 39.179688 29.214844 39.46875 C 29.085938 41.460938 29 43 29 43 Z M 9 42.5 C 9 41.671875 9.671875 41 10.5 41 C 11.328125 41 12 41.671875 12 42.5 C 12 41.671875 12.671875 41 13.5 41 C 14.328125 41 15 41.671875 15 42.5 L 15 39.351563 C 14.542969 39.132813 14.039063 39 13.5 39 C 12.964844 39 12.453125 39.121094 12 39.339844 C 11.546875 39.121094 11.035156 39 10.5 39 C 8.605469 39 7.066406 40.515625 7.011719 42.394531 C 7.164063 42.75 7.511719 43 7.921875 43 L 9 43 Z M 26.304688 27.652344 C 21.457031 25.128906 19 20.089844 19 15 C 19 11.382813 20.296875 8.832031 21.992188 7.390625 C 21.214844 7.269531 20.382813 7.164063 19.488281 7.097656 C 18 8.945313 17 11.59375 17 15 C 17 21.320313 20.988281 25.121094 26.300781 27.671875 Z M 15 32 L 15 33 C 15 33 16.378906 34 18 34 C 19.621094 34 21 33 21 33 L 21 29 C 21 29 20.335938 32 15 32 Z M 29 13 C 28.449219 13 28 13.449219 28 14 C 28 14.550781 29 18 29 18 C 29 18 30 14.550781 30 14 C 30 13.449219 29.550781 13 29 13 Z M 30.386719 8.984375 C 30.402344 9.015625 30.417969 9.046875 30.433594 9.078125 C 30.503906 9.222656 30.566406 9.367188 30.628906 9.519531 C 30.648438 9.570313 30.667969 9.625 30.6875 9.679688 C 30.734375 9.8125 30.773438 9.949219 30.8125 10.085938 C 30.828125 10.148438 30.84375 10.210938 30.859375 10.277344 C 30.890625 10.414063 30.914063 10.558594 30.9375 10.699219 C 30.945313 10.761719 30.957031 10.820313 30.964844 10.882813 C 30.984375 11.085938 31 11.289063 31 11.5 C 31 11.632813 30.984375 11.75 30.972656 11.871094 C 31.519531 10.339844 31.960938 8.210938 31.261719 6.25 C 30.398438 6.4375 29.578125 6.730469 28.808594 7.113281 C 28.808594 7.113281 28.808594 7.113281 28.8125 7.113281 C 29.46875 7.613281 30.007813 8.25 30.386719 8.984375 Z "/>
<path style=" stroke:none;fill-rule:nonzero;fill:#CFD8DC;fill-opacity:1;" d="M 9 42.5 C 9 41.671875 9.671875 41 10.5 41 C 11.328125 41 12 41.671875 12 42.5 L 12 43 L 9 43 Z M 12 43 L 15 43 L 15 42.5 C 15 41.671875 14.328125 41 13.5 41 C 12.671875 41 12 41.671875 12 42.5 Z M 23 43 L 26 43 L 26 42.5 C 26 41.671875 25.328125 41 24.5 41 C 23.671875 41 23 41.671875 23 42.5 Z M 26 43 L 29 43 L 29 42.5 C 29 41.671875 28.328125 41 27.5 41 C 26.671875 41 26 41.671875 26 42.5 Z "/>
</g>
</svg>
