<?xml version="1.0" encoding="UTF-8"?>
<svg xmlns="http://www.w3.org/2000/svg" xmlns:xlink="http://www.w3.org/1999/xlink" width="48pt" height="48pt" viewBox="0 0 48 48" version="1.1">
<g id="surface1">
<path style=" stroke:none;fill-rule:nonzero;fill:#78909C;fill-opacity:1;" d="M 40 41 L 8 41 C 5.800781 41 4 39.199219 4 37 L 4 16.101563 C 4 14.800781 4.601563 13.601563 5.699219 12.800781 L 24 0 L 42.300781 12.800781 C 43.398438 13.5 44 14.800781 44 16.101563 L 44 37 C 44 39.199219 42.199219 41 40 41 Z "/>
<path style=" stroke:none;fill-rule:nonzero;fill:#FFFFFF;fill-opacity:1;" d="M 12 11 L 36 11 L 36 33 L 12 33 Z "/>
<path style=" stroke:none;fill-rule:nonzero;fill:#CFD8DC;fill-opacity:1;" d="M 40 41 L 8 41 C 5.800781 41 4 39.199219 4 37 L 4 17 L 24 30 L 44 17 L 44 37 C 44 39.199219 42.199219 41 40 41 Z "/>
<path style=" stroke:none;fill-rule:nonzero;fill:#4CAF50;fill-opacity:1;" d="M 22 14 L 26 14 L 26 26 L 22 26 Z "/>
<path style=" stroke:none;fill-rule:nonzero;fill:#4CAF50;fill-opacity:1;" d="M 18 18 L 30 18 L 30 22 L 18 22 Z "/>
</g>
</svg>
