<?xml version="1.0" encoding="UTF-8" standalone="no"?>
<svg
   xmlns:dc="http://purl.org/dc/elements/1.1/"
   xmlns:cc="http://creativecommons.org/ns#"
   xmlns:rdf="http://www.w3.org/1999/02/22-rdf-syntax-ns#"
   xmlns:svg="http://www.w3.org/2000/svg"
   xmlns="http://www.w3.org/2000/svg"
   xmlns:sodipodi="http://sodipodi.sourceforge.net/DTD/sodipodi-0.dtd"
   xmlns:inkscape="http://www.inkscape.org/namespaces/inkscape"
   width="170"
   height="170"
   viewBox="0 0 170 170"
   version="1.1"
   id="svg13"
   sodipodi:docname="icons8-matrix.svg"
   inkscape:version="0.92.4 (unknown)"
   inkscape:export-filename="/home/tim/Downloads/icons8-m.svg.png"
   inkscape:export-xdpi="96"
   inkscape:export-ydpi="96">
  <metadata
     id="metadata19">
    <rdf:RDF>
      <cc:Work
         rdf:about="">
        <dc:format>image/svg+xml</dc:format>
        <dc:type
           rdf:resource="http://purl.org/dc/dcmitype/StillImage" />
        <dc:title></dc:title>
      </cc:Work>
    </rdf:RDF>
  </metadata>
  <defs
     id="defs17" />
  <sodipodi:namedview
     pagecolor="#ffffff"
     bordercolor="#666666"
     borderopacity="1"
     objecttolerance="10"
     gridtolerance="10"
     guidetolerance="10"
     inkscape:pageopacity="0"
     inkscape:pageshadow="2"
     inkscape:window-width="1920"
     inkscape:window-height="1037"
     id="namedview15"
     showgrid="true"
     inkscape:pagecheckerboard="true"
     inkscape:snap-intersection-paths="true"
     inkscape:snap-smooth-nodes="true"
     inkscape:object-paths="true"
     inkscape:snap-midpoints="true"
     inkscape:zoom="2.8284271"
     inkscape:cx="81.600747"
     inkscape:cy="72.370407"
     inkscape:window-x="1920"
     inkscape:window-y="43"
     inkscape:window-maximized="1"
     inkscape:current-layer="svg13"
     showguides="true"
     inkscape:guide-bbox="true">
    <inkscape:grid
       type="xygrid"
       id="grid4758"
       empspacing="4" />
  </sodipodi:namedview>
  <g
     id="surface232813"
     transform="translate(20,21)">
    <path
       style="fill:#85caf8;fill-opacity:1;fill-rule:nonzero;stroke:none"
       d="m 61.15625,120.26953 c -1.644531,0 -3.097656,-0.92969 -3.78125,-2.42578 L 23.910156,44.796875 C 23.730469,44.40625 23.4375,44.207031 23.035156,44.207031 22.992188,44.207031 22,44.21875 22,45.210938 V 116 c 0,1.10547 -0.894531,2 -2,2 h -8 c -1.105469,0 -2,-0.89453 -2,-2 V 14 c 0,-1.105469 0.894531,-2 2,-2 h 15.574219 c 0.785156,0 1.492187,0.457031 1.820312,1.164062 L 65.011719,90.910156 100,14.03125 V 14 c 0,-1.105469 0.89453,-2 2,-2 h 16 c 1.10547,0 2,0.894531 2,2 v 102 c 0,1.10547 -0.89453,2 -2,2 h -16 c -1.10547,0 -2,-0.89453 -2,-2 V 45.410156 c 0,-0.992187 -0.992188,-1.003906 -1.039062,-1.003906 -0.398438,0 -0.695313,0.199219 -0.871094,0.589844 L 64.941406,117.83594 c -0.683594,1.5 -2.136718,2.43359 -3.785156,2.43359 z m 0,0"
       id="path2"
       inkscape:connector-curvature="0" />
    <path
       style="fill:#9edcff;fill-opacity:1;fill-rule:nonzero;stroke:none"
       d="m 99.664062,43.34375 v 72.14844 c 5.808598,-0.0469 10.499998,-4.75781 10.499998,-10.57422 V 53.917969 c 0,-5.816407 -4.6914,-10.53125 -10.499998,-10.574219 z M 22.910156,42.390625 57.375,118.25 c 5.269531,-2.4375 7.597656,-8.66797 5.199219,-13.96484 L 36.84375,47.691406 c -2.402344,-5.300781 -8.625,-7.65625 -13.933594,-5.300781 z m 0,0"
       id="path4"
       inkscape:connector-curvature="0" />
    <path
       style="fill:#8c6b9e;fill-opacity:1;fill-rule:nonzero;stroke:none"
       d="m 110,34 c -1.10547,0 -2,-0.894531 -2,-2 v -8 c 0,-1.105469 0.89453,-2 2,-2 1.10547,0 2,0.894531 2,2 v 8 c 0,1.105469 -0.89453,2 -2,2 z m 0,24 c -1.10547,0 -2,-0.894531 -2,-2 V 40 c 0,-1.105469 0.89453,-2 2,-2 1.10547,0 2,0.894531 2,2 v 16 c 0,1.105469 -0.89453,2 -2,2 z m 0,0"
       id="path6"
       inkscape:connector-curvature="0" />
    <path
       style="fill:#8c6b9e;fill-opacity:1;fill-rule:nonzero;stroke:none"
       d="M 118,14 V 116 H 102 V 45.410156 c 0,-1.890625 -1.51562,-3.003906 -3.035156,-3.003906 -1.070313,0 -2.144532,0.550781 -2.695313,1.765625 L 63.121094,117.00781 c -0.386719,0.83985 -1.175782,1.26172 -1.964844,1.26172 -0.789062,0 -1.578125,-0.41797 -1.960938,-1.25781 L 25.726562,43.964844 C 25.175781,42.757812 24.105469,42.210938 23.035156,42.210938 21.515625,42.210938 20,43.320312 20,45.214844 V 116 H 12 V 14 h 15.574219 l 35.804687,78.148438 c 0.320313,0.699218 0.976563,1.050781 1.632813,1.050781 0.660156,0 1.316406,-0.351563 1.632812,-1.054688 L 102,14.464844 V 14 h 16 m 0,-4 h -16 c -2.054688,0 -3.746094,1.546875 -3.972656,3.542969 L 65.007812,86.097656 31.210938,12.335938 C 30.5625,10.910156 29.140625,10 27.574219,10 H 12 c -2.210938,0 -4,1.789062 -4,4 v 102 c 0,2.21094 1.789062,4 4,4 h 8 c 2.210938,0 4,-1.78906 4,-4 V 49.796875 l 31.554688,68.878905 c 1.015624,2.21485 3.160156,3.59375 5.597656,3.59375 2.445312,0 4.59375,-1.38281 5.609375,-3.60937 L 98,50.023438 V 116 c 0,2.21094 1.789062,4 4,4 h 16 c 2.21094,0 4,-1.78906 4,-4 V 14 c 0,-2.210938 -1.78906,-4 -4,-4 z m 0,0"
       id="path8"
       inkscape:connector-curvature="0" />
    <path
       style="fill:#8c6b9e;fill-opacity:1;fill-rule:nonzero;stroke:none"
       d="m 40.273438,24.136719 c 0.460937,1.003906 1.652343,1.441406 2.652343,0.980469 l 3.632813,-1.675782 c 1,-0.464844 1.4375,-1.652344 0.976562,-2.65625 -0.460937,-1 -1.652344,-1.4375 -2.652344,-0.976562 L 41.25,21.484375 c -1.003906,0.460937 -1.441406,1.648437 -0.976562,2.652344 z m -4.195313,-9.078125 c 0.464844,1 1.652344,1.4375 2.65625,0.976562 l 3.632813,-1.675781 c 1,-0.464844 1.4375,-1.652344 0.976562,-2.652344 -0.464844,-1.003906 -1.652344,-1.441406 -2.652344,-0.980469 l -3.632812,1.675782 c -1.003906,0.464844 -1.441406,1.652344 -0.980469,2.65625 z m 8.386719,18.15625 c 0.464844,1.003906 1.652344,1.441406 2.652344,0.980468 L 50.75,32.519531 c 1.003906,-0.464843 1.441406,-1.652343 0.976562,-2.65625 -0.460937,-1 -1.652343,-1.4375 -2.652343,-0.976562 L 45.441406,30.5625 c -1,0.464844 -1.4375,1.652344 -0.976562,2.652344 z m 4.191406,9.082031 c 0.464844,1 1.652344,1.4375 2.65625,0.976563 l 3.632812,-1.675782 c 1,-0.464844 1.4375,-1.652344 0.976563,-2.652344 -0.464844,-1.003906 -1.652344,-1.441406 -2.652344,-0.980468 l -3.632812,1.675781 c -1.003907,0.464844 -1.441407,1.652344 -0.980469,2.65625 z m 8.386719,18.15625 c 0.464843,1 1.652343,1.4375 2.652343,0.976563 l 3.632813,-1.675782 c 1,-0.464844 1.441406,-1.652344 0.976563,-2.652344 -0.460938,-1.003906 -1.652344,-1.441406 -2.652344,-0.980468 l -3.632813,1.675781 c -1.003906,0.464844 -1.441406,1.652344 -0.976562,2.65625 z M 52.851562,51.375 c 0.460938,1 1.652344,1.4375 2.652344,0.976562 l 3.632813,-1.675781 c 1,-0.464843 1.4375,-1.652343 0.976562,-2.652343 -0.460937,-1.003907 -1.652343,-1.441407 -2.652343,-0.980469 l -3.632813,1.675781 c -1.003906,0.464844 -1.441406,1.652344 -0.976563,2.65625 z m 8.382813,18.15625 c 0.464844,1.003906 1.652344,1.441406 2.652344,0.980469 l 3.632812,-1.675781 c 1.003907,-0.464844 1.441407,-1.652344 0.976563,-2.65625 -0.460938,-1 -1.648438,-1.441407 -2.652344,-0.976563 l -3.632812,1.675781 c -1,0.460938 -1.4375,1.648438 -0.976563,2.652344 z m 0,0"
       id="path10"
       inkscape:connector-curvature="0" />
  </g>
  <g
     transform="matrix(-1,0,0,1,70,-5)"
     id="g4946">
    <path
       sodipodi:nodetypes="ssccccssssccss"
       inkscape:connector-curvature="0"
       style="fill:#85caf8;fill-opacity:1;fill-rule:nonzero;stroke:none"
       d="m 36,168 c -1.105469,0 -2,-0.89453 -2,-2 v -8 l 2,-2 H 54 V 24 H 36 c -1.105469,0 -2,-0.894531 -2,-2 v -8 c 0,-1.105469 0.894531,-2 2,-2 h 32 v 154 c 0,1.10547 -0.894531,2 -2,2 z"
       id="path4938" />
    <path
       inkscape:connector-curvature="0"
       id="path4979"
       d="m 68,14 v 152 c -3.8724,-0.0313 -7,-3.17187 -7,-7.04948 V 21.049479 C 61,17.171875 64.1276,14.028645 68,14 Z"
       style="fill:#9edcff;fill-opacity:1;fill-rule:nonzero;stroke:none;stroke-width:0.66666669"
       sodipodi:nodetypes="ccssc" />
    <path
       sodipodi:nodetypes="ccccccsscccsssccccssscccc"
       inkscape:connector-curvature="0"
       style="fill:#8c6b9e;fill-opacity:1;fill-rule:nonzero;stroke:none"
       d="M 66,14 V 166 H 36 v -8 h 16 c 2.174037,0 4,-1.73438 4,-4 V 25 c 0,-1.65625 -1.34375,-3 -3,-3 H 36 v -8 m 0,-4 c -2.210938,0 -4,1.789062 -4,4 v 8 c 0,2.210938 1.789062,4 4,4 H 52 V 154 H 36 c -2,0 -4,1.54464 -4,4 v 8 c 0,2.21094 1.789062,4 4,4 h 30 c 2.210938,0 4,-1.78906 4,-4 V 14 c 0,-2.265625 -1.84375,-4 -4,-4 z"
       id="path4944" />
  </g>
  <flowRoot
     xml:space="preserve"
     id="flowRoot4954"
     style="font-style:normal;font-weight:normal;font-size:40px;line-height:1.25;font-family:sans-serif;letter-spacing:0px;word-spacing:0px;fill:#000000;fill-opacity:1;stroke:none"
     transform="translate(0,-10)"><flowRegion
       id="flowRegion4956"><rect
         id="rect4958"
         width="68"
         height="112"
         x="-156"
         y="0" /></flowRegion><flowPara
       id="flowPara4960"></flowPara></flowRoot>  <g
     id="g4975"
     transform="translate(100,-5)">
    <path
       id="path4971"
       d="m 36,168 c -1.105469,0 -2,-0.89453 -2,-2 v -8 l 2,-2 H 54 V 24 H 36 c -1.105469,0 -2,-0.894531 -2,-2 v -8 c 0,-1.105469 0.894531,-2 2,-2 h 32 v 154 c 0,1.10547 -0.894531,2 -2,2 z"
       style="fill:#85caf8;fill-opacity:1;fill-rule:nonzero;stroke:none"
       inkscape:connector-curvature="0"
       sodipodi:nodetypes="ssccccssssccss" />
    <path
       sodipodi:nodetypes="ccssc"
       style="fill:#9edcff;fill-opacity:1;fill-rule:nonzero;stroke:none;stroke-width:0.66666669"
       d="M 54,23.950521 V 156 c 3.8724,-0.0313 7,-3.17187 7,-7.04948 V 31 c 0,-3.877604 -3.1276,-7.020834 -7,-7.049479 z"
       id="path4985"
       inkscape:connector-curvature="0" />
    <path
       id="path4973"
       d="M 66,14 V 166 H 36 v -8 h 16 c 2.174037,0 4,-1.73438 4,-4 V 25 c 0,-1.65625 -1.34375,-3 -3,-3 H 36 v -8 m 0,-4 c -2.210938,0 -4,1.789062 -4,4 v 8 c 0,2.210938 1.789062,4 4,4 H 52 V 154 H 36 c -2,0 -4,1.54464 -4,4 v 8 c 0,2.21094 1.789062,4 4,4 h 30 c 2.210938,0 4,-1.78906 4,-4 V 14 c 0,-2.265625 -1.84375,-4 -4,-4 z"
       style="fill:#8c6b9e;fill-opacity:1;fill-rule:nonzero;stroke:none"
       inkscape:connector-curvature="0"
       sodipodi:nodetypes="ccccccsscccsssccccssscccc" />
  </g>
</svg>
