<?xml version="1.0" encoding="UTF-8" standalone="no"?>
<!-- Generator: Adobe Illustrator 19.1.0, SVG Export Plug-In . SVG Version: 6.00 Build 0)  -->

<svg
   xmlns:dc="http://purl.org/dc/elements/1.1/"
   xmlns:cc="http://creativecommons.org/ns#"
   xmlns:rdf="http://www.w3.org/1999/02/22-rdf-syntax-ns#"
   xmlns:svg="http://www.w3.org/2000/svg"
   xmlns="http://www.w3.org/2000/svg"
   xmlns:sodipodi="http://sodipodi.sourceforge.net/DTD/sodipodi-0.dtd"
   xmlns:inkscape="http://www.inkscape.org/namespaces/inkscape"
   version="1.1"
   id="Layer_1"
   x="0px"
   y="0px"
   viewBox="0 0 1283.2 1283.1999"
   xml:space="preserve"
   sodipodi:docname="permaweb-symbol-transparent-dark.svg"
   inkscape:version="0.92.4 (unknown)"
   width="1283.2"
   height="1283.2"><metadata
   id="metadata17"><rdf:RDF><cc:Work
       rdf:about=""><dc:format>image/svg+xml</dc:format><dc:type
         rdf:resource="http://purl.org/dc/dcmitype/StillImage" /><dc:title></dc:title></cc:Work></rdf:RDF></metadata><defs
   id="defs15" /><sodipodi:namedview
   pagecolor="#ffffff"
   bordercolor="#666666"
   borderopacity="1"
   objecttolerance="10"
   gridtolerance="10"
   guidetolerance="10"
   inkscape:pageopacity="0"
   inkscape:pageshadow="2"
   inkscape:window-width="1920"
   inkscape:window-height="1080"
   id="namedview13"
   showgrid="false"
   inkscape:pagecheckerboard="true"
   inkscape:zoom="0.32925999"
   inkscape:cx="660.00234"
   inkscape:cy="463.44578"
   inkscape:window-x="0"
   inkscape:window-y="0"
   inkscape:window-maximized="1"
   inkscape:current-layer="Layer_1" />
<style
   type="text/css"
   id="style2">
	.st0{fill:#FF5A5A;}
	.st1{fill:#FFFFFF;}
	.st2{opacity:0.5;fill:#FFFFFF;}
</style>

<g
   id="g10"
   transform="translate(-858.4,-372.10005)">
	<path
   class="st1"
   d="m 1397.8,1115.9 v 132.6 34.9 c 0,23.5 -4.9,45.9 -13.7,66.3 h 212.1 c 3.9,-21.5 6,-43.7 6,-66.3 v -167.5 h 167.5 c 205.1,0 371.9,-166.8 371.9,-371.9 0,-205.1 -166.8,-371.9 -371.9,-371.9 -205.1,0 -371.9,166.8 -371.9,371.9 v 130 37.4 z M 1602.2,744 c 0,-92.3 75.1,-167.5 167.5,-167.5 92.3,0 167.5,75.1 167.5,167.5 0,92.4 -75.1,167.5 -167.5,167.5 h -167.5 z"
   id="path6"
   inkscape:connector-curvature="0"
   style="fill:#000000;fill-opacity:1" />
	<path
   class="st2"
   d="m 1357.8,1391.7 c -30.7,36.1 -76.4,59.1 -127.5,59.1 -92.3,0 -167.5,-75.1 -167.5,-167.5 0,-92.3 75.1,-167.5 167.5,-167.5 h 125.4 V 911.5 h -125.4 c -205.1,0 -371.9,166.8 -371.9,371.9 0,205.1 166.8,371.9 371.9,371.9 167.4,0 309.1,-111.2 355.6,-263.5 h -228.1 z"
   id="path8"
   inkscape:connector-curvature="0"
   style="opacity:0.5;fill:#050505;fill-opacity:1" />
</g>
</svg>